<svg xmlns="http://www.w3.org/2000/svg" viewBox="0 0 24 24" fill="#EF6F47" width="24" height="24">
  <path d="M12 2C5.92 2 1 6.92 1 13c0 3.18 1.32 6.04 3.45 8.08A1 1 0 0 0 5 22h14a1 1 0 0 0 .55-.83C21.68 19.04 23 16.18 23 13c0-6.08-4.92-11-11-11zm-7 9c0-.55.45-1 1-1s1 .45 1 1-.45 1-1 1-1-.45-1-1zm2.5 5c-.83 0-1.5-.67-1.5-1.5S6.67 13 7.5 13s1.5.67 1.5 1.5S8.33 16 7.5 16zm3.5-2c-.55 0-1-.45-1-1s.45-1 1-1 1 .45 1 1-.45 1-1 1zm2-4c-.55 0-1-.45-1-1s.45-1 1-1 1 .45 1 1-.45 1-1 1zm2 4c-.55 0-1-.45-1-1s.45-1 1-1 1 .45 1 1-.45 1-1 1zm3.5 2c-.83 0-1.5-.67-1.5-1.5s.67-1.5 1.5-1.5 1.5.67 1.5 1.5-.67 1.5-1.5 1.5zm1.5-6c-.55 0-1-.45-1-1s.45-1 1-1 1 .45 1 1-.45 1-1 1z"/>
</svg> 